<svg width="36" height="33" viewBox="0 0 36 33" fill="none" xmlns="http://www.w3.org/2000/svg">
<rect width="36" height="33" rx="5" fill="#2158E6"/>
<g clip-path="url(#clip0_2317_3204)">
<path d="M26.4219 7.84473C25.5664 6.98926 24.1836 6.98926 23.3281 7.84473L22.1523 9.0166L25.9766 12.8408L27.1523 11.665C28.0078 10.8096 28.0078 9.42676 27.1523 8.57129L26.4219 7.84473ZM14.7344 16.4385C14.4961 16.6768 14.3125 16.9697 14.207 17.2939L13.0508 20.7627C12.9375 21.0986 13.0273 21.4697 13.2773 21.7236C13.5273 21.9775 13.8984 22.0635 14.2383 21.9502L17.707 20.7939C18.0273 20.6885 18.3203 20.5049 18.5625 20.2666L25.0977 13.7275L21.2695 9.89941L14.7344 16.4385ZM11.75 9.49707C9.67969 9.49707 8 11.1768 8 13.2471V23.2471C8 25.3174 9.67969 26.9971 11.75 26.9971H21.75C23.8203 26.9971 25.5 25.3174 25.5 23.2471V19.4971C25.5 18.8057 24.9414 18.2471 24.25 18.2471C23.5586 18.2471 23 18.8057 23 19.4971V23.2471C23 23.9385 22.4414 24.4971 21.75 24.4971H11.75C11.0586 24.4971 10.5 23.9385 10.5 23.2471V13.2471C10.5 12.5557 11.0586 11.9971 11.75 11.9971H15.5C16.1914 11.9971 16.75 11.4385 16.75 10.7471C16.75 10.0557 16.1914 9.49707 15.5 9.49707H11.75Z" fill="white"/>
</g>
<defs>
<clipPath id="clip0_2317_3204">
<rect width="20" height="20" fill="white" transform="translate(8 7)"/>
</clipPath>
</defs>
</svg>
