<svg width="15" height="16" viewBox="0 0 15 16" fill="none" xmlns="http://www.w3.org/2000/svg">
<path d="M7.5 15.5C9.48912 15.5 11.3968 14.7098 12.8033 13.3033C14.2098 11.8968 15 9.98912 15 8C15 6.01088 14.2098 4.10322 12.8033 2.6967C11.3968 1.29018 9.48912 0.5 7.5 0.5C5.51088 0.5 3.60322 1.29018 2.1967 2.6967C0.790176 4.10322 0 6.01088 0 8C0 9.98912 0.790176 11.8968 2.1967 13.3033C3.60322 14.7098 5.51088 15.5 7.5 15.5ZM5.12695 5.62695C5.40234 5.35156 5.84766 5.35156 6.12012 5.62695L7.49707 7.00391L8.87402 5.62695C9.14941 5.35156 9.59473 5.35156 9.86719 5.62695C10.1396 5.90234 10.1426 6.34766 9.86719 6.62012L8.49023 7.99707L9.86719 9.37402C10.1426 9.64941 10.1426 10.0947 9.86719 10.3672C9.5918 10.6396 9.14648 10.6426 8.87402 10.3672L7.49707 8.99023L6.12012 10.3672C5.84473 10.6426 5.39941 10.6426 5.12695 10.3672C4.85449 10.0918 4.85156 9.64648 5.12695 9.37402L6.50391 7.99707L5.12695 6.62012C4.85156 6.34473 4.85156 5.89941 5.12695 5.62695Z" fill="#050D56"/>
</svg>
