<svg width="52" height="50" viewBox="0 0 52 50" fill="none" xmlns="http://www.w3.org/2000/svg">
<path d="M51.5 25C51.5 38.5127 40.1019 49.5 26 49.5C11.8981 49.5 0.5 38.5127 0.5 25C0.5 11.4873 11.8981 0.5 26 0.5C40.1019 0.5 51.5 11.4873 51.5 25Z" fill="#EDEDED" stroke="black"/>
<g clip-path="url(#clip0_2281_750)">
<path d="M25.5 39C29.3456 39 33.0338 37.4723 35.753 34.753C38.4723 32.0338 40 28.3456 40 24.5C40 20.6544 38.4723 16.9662 35.753 14.247C33.0338 11.5277 29.3456 10 25.5 10C21.6544 10 17.9662 11.5277 15.247 14.247C12.5277 16.9662 11 20.6544 11 24.5C11 28.3456 12.5277 32.0338 15.247 34.753C17.9662 37.4723 21.6544 39 25.5 39ZM31.9004 21.8379L24.6504 29.0879C24.118 29.6203 23.257 29.6203 22.7303 29.0879L19.1053 25.4629C18.5729 24.9305 18.5729 24.0695 19.1053 23.5428C19.6377 23.016 20.4986 23.0104 21.0254 23.5428L23.6875 26.2049L29.9746 19.9121C30.507 19.3797 31.368 19.3797 31.8947 19.9121C32.4215 20.4445 32.4271 21.3055 31.8947 21.8322L31.9004 21.8379Z" fill="#040C53"/>
</g>
<defs>
<clipPath id="clip0_2281_750">
<rect width="29" height="29" fill="white" transform="translate(11 10)"/>
</clipPath>
</defs>
</svg>
