<svg width="27" height="27" viewBox="0 0 27 27" fill="none" xmlns="http://www.w3.org/2000/svg">
<path d="M11.3906 6.75005L15.6094 6.75005C16.3107 6.75005 16.875 7.31431 16.875 8.01567L16.875 16.875L21.4998 16.875C22.4385 16.875 22.9078 18.0088 22.2434 18.6733L14.2225 26.6995C13.827 27.095 13.1783 27.095 12.7828 26.6995L4.75664 18.6733C4.09219 18.0088 4.56152 16.875 5.5002 16.875L10.125 16.875L10.125 8.01567C10.125 7.31431 10.6893 6.75005 11.3906 6.75005ZM1.74265e-07 7.17193L-3.42076e-07 1.26568C-4.03392e-07 0.564309 0.564258 4.99948e-05 1.26562 4.99335e-05L25.7344 4.77944e-05C26.4357 4.7733e-05 27 0.564306 27 1.26567L27 7.17192C27 7.87329 26.4357 8.43755 25.7344 8.43755L18.5625 8.43755L18.5625 8.01567C18.5625 6.38618 17.2389 5.06255 15.6094 5.06255L11.3906 5.06255C9.76113 5.06255 8.4375 6.38618 8.4375 8.01567L8.4375 8.43755L1.26563 8.43755C0.564259 8.43755 2.3558e-07 7.87329 1.74265e-07 7.17193ZM6.53906 2.5313C6.53906 3.11138 7.01367 3.58599 7.59375 3.58599C8.17383 3.58599 8.64844 3.11138 8.64844 2.5313C8.64844 1.95122 8.17383 1.47661 7.59375 1.47661C7.01367 1.47661 6.53906 1.95122 6.53906 2.5313ZM3.16406 2.5313C3.16406 3.11138 3.63867 3.58599 4.21875 3.58599C4.79883 3.58599 5.27344 3.11138 5.27344 2.5313C5.27344 1.95122 4.79883 1.47661 4.21875 1.47661C3.63867 1.47661 3.16406 1.95122 3.16406 2.5313Z" fill="white"/>
</svg>
