<svg width="41" height="42" viewBox="0 0 41 42" fill="none" xmlns="http://www.w3.org/2000/svg">
<path d="M20.5091 10.6681C14.6886 10.6681 9.99375 15.2771 9.99375 20.9911C9.99375 26.7052 14.6886 31.3142 20.5091 31.3142C26.3297 31.3142 31.0246 26.7052 31.0246 20.9911C31.0246 15.2771 26.3297 10.6681 20.5091 10.6681ZM20.5091 27.7024C16.7478 27.7024 13.6728 24.6927 13.6728 20.9911C13.6728 17.2896 16.7386 14.2798 20.5091 14.2798C24.2797 14.2798 27.3455 17.2896 27.3455 20.9911C27.3455 24.6927 24.2705 27.7024 20.5091 27.7024ZM33.9074 10.2458C33.9074 11.5845 32.8092 12.6536 31.4547 12.6536C30.0911 12.6536 29.002 11.5755 29.002 10.2458C29.002 8.91611 30.1002 7.83799 31.4547 7.83799C32.8092 7.83799 33.9074 8.91611 33.9074 10.2458ZM40.8719 12.6896C40.7163 9.46416 39.9658 6.60713 37.5589 4.25322C35.1612 1.89932 32.2509 1.1626 28.9654 1.00088C25.5792 0.812207 15.4299 0.812207 12.0437 1.00088C8.76741 1.15361 5.85714 1.89033 3.45022 4.24424C1.0433 6.59814 0.302006 9.45518 0.137274 12.6806C-0.0549133 16.0048 -0.0549133 25.9685 0.137274 29.2927C0.292855 32.5181 1.0433 35.3751 3.45022 37.729C5.85714 40.0829 8.75826 40.8196 12.0437 40.9813C15.4299 41.17 25.5792 41.17 28.9654 40.9813C32.2509 40.8286 35.1612 40.0919 37.5589 37.729C39.9567 35.3751 40.7071 32.5181 40.8719 29.2927C41.0641 25.9685 41.0641 16.0138 40.8719 12.6896ZM36.4973 32.8595C35.7835 34.6204 34.4016 35.9771 32.5987 36.6868C29.8989 37.738 23.4926 37.4954 20.5091 37.4954C17.5257 37.4954 11.1103 37.729 8.41964 36.6868C6.62589 35.986 5.24397 34.6294 4.52098 32.8595C3.45022 30.2091 3.69732 23.92 3.69732 20.9911C3.69732 18.0622 3.45937 11.7642 4.52098 9.12275C5.23482 7.36182 6.61674 6.00518 8.41964 5.29541C11.1194 4.24424 17.5257 4.48682 20.5091 4.48682C23.4926 4.48682 29.908 4.25322 32.5987 5.29541C34.3924 5.99619 35.7743 7.35283 36.4973 9.12275C37.5681 11.7731 37.321 18.0622 37.321 20.9911C37.321 23.92 37.5681 30.2181 36.4973 32.8595Z" fill="#040C53"/>
</svg>
