<svg width="32" height="35" viewBox="0 0 32 35" fill="none" xmlns="http://www.w3.org/2000/svg">
<g clip-path="url(#clip0_1484_444)">
<path d="M29.2857 2.1875H2.70737C1.48951 2.1875 0.5 3.17871 0.5 4.39551V30.6045C0.5 31.8213 1.48951 32.8125 2.70737 32.8125H29.2857C30.5036 32.8125 31.5 31.8213 31.5 30.6045V4.39551C31.5 3.17871 30.5036 2.1875 29.2857 2.1875ZM9.8692 28.4375H5.27455V13.8223H9.87612V28.4375H9.8692ZM7.57187 11.8262C6.09799 11.8262 4.90781 10.6436 4.90781 9.19434C4.90781 7.74512 6.09799 6.5625 7.57187 6.5625C9.03884 6.5625 10.2359 7.74512 10.2359 9.19434C10.2359 10.6504 9.04576 11.8262 7.57187 11.8262ZM27.0922 28.4375H22.4975V21.3281C22.4975 19.6328 22.4629 17.4521 20.1103 17.4521C17.7161 17.4521 17.3493 19.2979 17.3493 21.2051V28.4375H12.7547V13.8223H17.1625V15.8184H17.2248C17.8406 14.6699 19.3422 13.46 21.5772 13.46C26.2272 13.46 27.0922 16.4883 27.0922 20.4258V28.4375Z" fill="#040C53"/>
</g>
<defs>
<clipPath id="clip0_1484_444">
<rect width="31" height="35" fill="white" transform="translate(0.5)"/>
</clipPath>
</defs>
</svg>
