<svg width="45" height="39" viewBox="0 0 45 39" fill="none" xmlns="http://www.w3.org/2000/svg">
<g id="youtube 1">
<path id="Vector" d="M42.4874 9.45163C42.0076 7.65017 40.594 6.23139 38.7991 5.74991C35.5457 4.875 22.4999 4.875 22.4999 4.875C22.4999 4.875 9.45422 4.875 6.20074 5.74991C4.40583 6.23147 2.99217 7.65017 2.51237 9.45163C1.64062 12.7169 1.64062 19.5296 1.64062 19.5296C1.64062 19.5296 1.64062 26.3422 2.51237 29.6075C2.99217 31.4089 4.40583 32.7686 6.20074 33.2501C9.45422 34.125 22.4999 34.125 22.4999 34.125C22.4999 34.125 35.5456 34.125 38.7991 33.2501C40.594 32.7686 42.0076 31.4089 42.4874 29.6075C43.3592 26.3422 43.3592 19.5296 43.3592 19.5296C43.3592 19.5296 43.3592 12.7169 42.4874 9.45163ZM18.2332 25.7149V13.3442L29.1369 19.5297L18.2332 25.7149Z" fill="#040C53"/>
</g>
</svg>
