<svg width="18" height="18" viewBox="0 0 18 18" fill="none" xmlns="http://www.w3.org/2000/svg">
<path d="M10.2854 2.125C10.2854 1.43359 9.71088 0.875 8.99972 0.875C8.28856 0.875 7.71401 1.43359 7.71401 2.125V7.75H1.92829C1.21713 7.75 0.642578 8.30859 0.642578 9C0.642578 9.69141 1.21713 10.25 1.92829 10.25H7.71401V15.875C7.71401 16.5664 8.28856 17.125 8.99972 17.125C9.71088 17.125 10.2854 16.5664 10.2854 15.875V10.25H16.0712C16.7823 10.25 17.3569 9.69141 17.3569 9C17.3569 8.30859 16.7823 7.75 16.0712 7.75H10.2854V2.125Z" fill="white"/>
</svg>
